<?xml version="1.0" standalone="no"?>
<!DOCTYPE svg PUBLIC "-//W3C//DTD SVG 1.1//EN" "http://www.w3.org/Graphics/SVG/1.1/DTD/svg11.dtd" >
<svg xmlns="http://www.w3.org/2000/svg">
<metadata></metadata>
<defs>
<font id="deliciousroman" horiz-adv-x="921" >
<font-face units-per-em="2048" ascent="1638" descent="-410" />
<missing-glyph horiz-adv-x="614" />
<glyph horiz-adv-x="2048" />
<glyph horiz-adv-x="2048" />
<glyph unicode="&#xd;" horiz-adv-x="2048" />
<glyph unicode=" "  horiz-adv-x="614" />
<glyph unicode="&#x09;" horiz-adv-x="614" />
<glyph unicode="&#xa0;" horiz-adv-x="614" />
<glyph unicode="!" horiz-adv-x="540" d="M174 84q0 52 39.5 88.5t91.5 36.5q48 0 83.5 -33t35.5 -82q0 -50 -39.5 -87.5t-91.5 -37.5q-48 0 -83.5 33t-35.5 82zM213 1085q0 183 31 326l155 21q-34 -194 -34 -396v-704h-123q-2 31 -8 148t-8.5 161.5t-6 134t-5 161.5t-1.5 148z" />
<glyph unicode="&#x22;" horiz-adv-x="708" d="M131 1321l27 129h100l29 -129l-45 -322h-68zM414 1321l26 129h101l28 -129l-45 -322h-67z" />
<glyph unicode="#" horiz-adv-x="1138" d="M125 436l20 135h164l39 312h-145l20 135h142l51 403h123l-52 -403h236l45 364h123l-45 -364h174l-12 -135h-181l-39 -312h154l-12 -135h-158l-53 -418h-123l53 418h-235l-47 -379h-123l47 379h-166zM432 571h234l39 312h-234z" />
<glyph unicode="$" horiz-adv-x="911" d="M127 983q0 149 85.5 238t233.5 98v113h93v-115q65 -8 132 -33.5t117 -64.5l-55 -111q-83 61 -194 78v-467q6 -4 18 -11q127 -81 175 -127q103 -110 106 -262q0 -135 -82.5 -227.5t-216.5 -116.5v-125h-93v119q-75 1 -159 25.5t-150 62.5l47 123q153 -77 262 -82v484 l-33 21q-43 27 -64 40.5t-57 40t-55 45.5t-43.5 49t-36.5 59t-21 66.5t-9 79.5zM287 997q0 -42 11 -74.5t38 -60t47 -42.5t63 -44v412q-75 -12 -117 -63.5t-42 -127.5zM539 113q67 23 104 79.5t37 129.5q0 111 -141 202v-411z" />
<glyph unicode="%" horiz-adv-x="1431" d="M94 1049q0 112 80 192t193 80q80 0 145 -41q86 -23 143 -23t114 15.5t85 31.5l29 15l104 -29l-455 -1290h-135l432 1196q-35 -18 -88 -28t-89 -10l-36 -1q23 -42 23 -108q0 -113 -80 -193t-192 -80q-113 0 -193 80t-80 193zM215 1049q0 -63 44.5 -107.5t107.5 -44.5 t107 44.5t44 107.5t-44 107t-107 44t-107.5 -44t-44.5 -107zM788 242q0 112 80 192t193 80t192.5 -80t79.5 -192q0 -113 -80 -193t-192 -80q-113 0 -193 80.5t-80 192.5zM909 242q0 -63 44.5 -107.5t107.5 -44.5t107 44.5t44 107.5t-44 107t-107 44t-107.5 -44t-44.5 -107z " />
<glyph unicode="&#x26;" horiz-adv-x="1290" d="M86 479q0 79 21 160t61 153.5t108 119t152 49.5q-63 27 -102 73.5t-39 110.5q0 83 54.5 148.5t131.5 96.5t158 31q90 0 169.5 -31.5t134 -99.5t54.5 -160v-126h203v-119h-199v-678q0 -52 16 -82.5t64 -30.5q52 0 119 29l35 -96q-63 -31 -107 -44.5t-102 -13.5 q-95 0 -137.5 64.5t-42.5 165.5v686h-199q-202 0 -289.5 -97.5t-87.5 -302.5q0 -79 16 -166t48 -147q39 -76 77 -76q19 0 44 21t48 46.5t62.5 46.5t83.5 21q51 0 100 -22l-30 -111q-43 13 -64 13q-27 0 -51 -14.5t-42.5 -35.5t-38.5 -42t-49 -35.5t-65 -14.5 q-83 0 -147.5 52.5t-99 134t-51.5 164.5t-17 159zM442 1145q0 -40 20.5 -69.5t54 -44t68.5 -21t72 -6.5h189v96q0 94 -51 155.5t-144 61.5q-82 0 -145.5 -46t-63.5 -126z" />
<glyph unicode="'" horiz-adv-x="425" d="M131 1321l27 129h100l29 -129l-45 -322h-68z" />
<glyph unicode="(" horiz-adv-x="688" d="M96 680q0 272 140.5 517.5t373.5 391.5l17 -116q-191 -125 -300.5 -343.5t-109.5 -453.5q0 -517 412 -848l-15 -127q-263 198 -390.5 430.5t-127.5 548.5z" />
<glyph unicode=")" horiz-adv-x="694" d="M63 -172q414 330 414 848q0 235 -110 453.5t-301 343.5l16 116q234 -146 374 -391.5t140 -517.5q0 -316 -127.5 -548.5t-390.5 -430.5z" />
<glyph unicode="*" horiz-adv-x="868" d="M72 1128v132l307 -111l-74 231h238l-70 -231l305 106v-127l-268 -86l217 -333h-143l-158 252l-156 -252h-133l201 333z" />
<glyph unicode="+" horiz-adv-x="964" d="M92 451v122h330v355h119v-355h331v-122h-331v-355h-119v355h-330z" />
<glyph unicode="," horiz-adv-x="528" d="M59 -229q99 142 123 239q11 45 11 84l-5 49q58 35 97 35q27 0 60 -23.5t52 -46.5l19 -24q-9 -20 -28 -55t-87.5 -134.5t-148.5 -187.5z" />
<glyph unicode="-" horiz-adv-x="618" d="M111 461v123h391v-123h-391z" />
<glyph unicode="." horiz-adv-x="528" d="M147 84q0 52 40 88.5t92 36.5q48 0 83 -33t35 -82q0 -50 -39.5 -87.5t-91.5 -37.5q-48 0 -83.5 33t-35.5 82z" />
<glyph unicode="/" horiz-adv-x="729" d="M35 -303l530 1853h129l-530 -1853h-129z" />
<glyph unicode="0" d="M57 502q0 77 14 151t45.5 144t77 122t114.5 83.5t153 31.5t152.5 -31.5t114.5 -83.5t77 -122t45 -143.5t14 -151.5q0 -98 -23 -189.5t-69.5 -170t-126.5 -126t-184 -47.5q-84 0 -153 31.5t-114.5 84t-77 122t-45.5 144t-14 151.5zM205 502q0 -52 7 -104t25.5 -107 t46.5 -97t73.5 -69t103.5 -27t103.5 27t73.5 69t46.5 97t25.5 107t7 104q0 66 -12.5 131.5t-39.5 129t-80 103t-124 39.5t-124 -39.5t-80 -103t-39.5 -129t-12.5 -131.5z" />
<glyph unicode="1" d="M203 858v98q83 0 194 29l74 19h141v-1004h-151v858h-258z" />
<glyph unicode="2" d="M127 127q69 37 153.5 108.5t161 157.5t128 183.5t51.5 173.5q0 74 -52.5 113.5t-128.5 39.5q-131 0 -284 -117l-29 119q92 72 161.5 100.5t176.5 28.5q143 0 228 -70.5t85 -211.5q0 -188 -190 -404q-132 -147 -228 -213h455v-135h-659z" />
<glyph unicode="3" d="M147 -225q68 0 146 20q75 17 136.5 45.5t113 71.5t80 106.5t28.5 141.5q0 192 -289 192q-60 0 -174 -12v119l91 12q128 70 258 172q90 71 90 152q0 52 -38.5 82t-92.5 30q-51 0 -141.5 -37.5t-157.5 -76.5l-37 108q83 54 186 93.5t184 39.5q107 0 178.5 -64t71.5 -171 q0 -46 -19 -89t-43.5 -73.5t-68 -64t-73.5 -52t-78 -45.5q129 0 218 -77.5t89 -204.5q0 -109 -35.5 -199t-97 -152.5t-144.5 -105.5t-177 -62t-195 -18h-9v119z" />
<glyph unicode="4" d="M63 133q80 221 206 432.5t296 438.5h168v-871h131v-133h-135v-283h-145v283h-512zM215 133h369v680q-244 -359 -369 -680z" />
<glyph unicode="5" d="M137 -221q76 1 160 23t152 57q192 100 192 305q0 98 -65.5 145t-167.5 47q-101 0 -236 -41l57 689h508v-123h-366l-33 -412q58 12 86 12q9 0 26.5 -1t26.5 -1q85 -4 156 -35.5t117.5 -96t46.5 -150.5q0 -157 -72 -273.5t-213 -183.5q-177 -83 -367 -80h-8v119z" />
<glyph unicode="6" d="M96 524q0 136 45.5 259t126.5 220.5t182.5 174.5t225.5 137l55 -101q-73 -45 -118.5 -76.5t-101 -77t-91.5 -89t-71 -103.5t-60 -131q48 18 73 26t62.5 14.5t79.5 6.5q149 0 243.5 -94.5t94.5 -245.5q0 -73 -13 -140.5t-42.5 -129t-72.5 -107t-107 -72t-142 -26.5 q-83 0 -149 36t-106 92.5t-67 132t-37 148t-10 146.5zM246 481q0 -58 11.5 -120t36 -125t72 -103.5t111.5 -40.5q213 0 213 359q0 114 -64.5 173.5t-179.5 59.5q-32 0 -66 -8t-56.5 -17t-61.5 -26q-16 -78 -16 -152z" />
<glyph unicode="7" d="M121 872v132h672v-132q0 -272 -137.5 -640t-313.5 -592l-135 57q181 237 309.5 569.5t128.5 605.5h-524z" />
<glyph unicode="8" d="M84 317q0 118 67 212t177 145q-103 61 -155 128t-52 173q0 144 100.5 229.5t247.5 85.5q152 0 237 -78t85 -229q0 -96 -69 -174.5t-167 -120.5q129 -67 175 -103q107 -85 114 -219v-20q0 -175 -111 -276t-287 -101q-148 0 -255 100.5t-107 247.5zM238 340 q0 -101 64 -177.5t163 -76.5q98 0 161.5 76t63.5 176q0 41 -11.5 74.5t-27.5 56t-46 45.5t-52 35.5t-61.5 34t-61.5 34.5q-85 -44 -138.5 -116t-53.5 -162zM266 967q0 -82 44 -133t128 -93q101 51 132 76q77 63 77 174q0 189 -194 189q-84 0 -135.5 -63.5t-51.5 -149.5z" />
<glyph unicode="9" d="M88 557q0 73 12.5 140.5t41 129.5t71 107.5t106.5 72.5t142 27q83 0 149.5 -38t107.5 -97.5t68.5 -137.5t38.5 -153t11 -149q0 -110 -36.5 -216t-98.5 -193t-146 -164t-177 -134t-194 -98l-43 117q99 50 166 92t135.5 100.5t117 132.5t81.5 168q-57 -21 -77.5 -27.5 t-58.5 -13t-83 -6.5q-65 0 -131 29q-98 41 -150.5 122t-52.5 189zM240 551q0 -99 61.5 -165.5t159.5 -66.5q119 0 207 54q16 78 16 151q0 58 -11.5 119.5t-36 124.5t-72 103t-111.5 40q-213 0 -213 -360z" />
<glyph unicode=":" horiz-adv-x="528" d="M147 84q0 52 40 88.5t92 36.5q48 0 83 -33t35 -82q0 -50 -39.5 -87.5t-91.5 -37.5q-48 0 -83.5 33t-35.5 82zM147 713q0 52 40 88.5t92 36.5q48 0 83 -33t35 -82q0 -50 -39.5 -87.5t-91.5 -37.5q-48 0 -83.5 33t-35.5 82z" />
<glyph unicode=";" horiz-adv-x="528" d="M53 -229q99 142 123 239q10 41 10 84l-4 49q58 35 97 35q27 0 60 -23.5t52 -46.5l19 -24q-10 -20 -29 -55t-87.5 -134.5t-148.5 -187.5zM147 709q0 52 40 89.5t92 37.5q48 0 83 -33t35 -82q0 -52 -39.5 -89.5t-91.5 -37.5q-48 0 -83.5 33t-35.5 82z" />
<glyph unicode="&#x3c;" horiz-adv-x="614" d="M68 512l378 385l97 -78l-305 -307l309 -307l-96 -78z" />
<glyph unicode="=" horiz-adv-x="983" d="M90 293v123h782v-123h-782zM90 598v123h782v-123h-782z" />
<glyph unicode="&#x3e;" horiz-adv-x="614" d="M68 205l96 -78l383 385l-379 385l-96 -78l305 -307z" />
<glyph unicode="?" horiz-adv-x="733" d="M147 84q0 52 40 88.5t92 36.5q48 0 83 -33t35 -82q0 -50 -39.5 -87.5t-91.5 -37.5q-48 0 -83.5 33t-35.5 82zM211 332v104q0 87 2 127.5t20 102.5t56 112l168 226q69 94 69 161q0 58 -30 92.5t-88 34.5q-90 0 -172 -18v117q96 26 184 26q120 0 190 -63.5t70 -184.5 q0 -97 -100 -229l-164 -217q-46 -60 -63 -121.5t-17 -165.5v-104h-125z" />
<glyph unicode="@" horiz-adv-x="1622" d="M88 727q0 145 60.5 284.5t160.5 244t238 168t284 63.5q193 0 348.5 -79t246 -228.5t90.5 -343.5q0 -82 -34.5 -176t-91.5 -174.5t-139.5 -133.5t-169.5 -53q-72 0 -119 35t-47 104q0 8 5 33q-5 -4 -22.5 -19t-24 -20.5t-23.5 -19.5t-26 -20t-25.5 -17.5t-27.5 -17 t-27.5 -13.5t-29.5 -11.5t-28.5 -6t-30.5 -2.5q-66 0 -114.5 41t-70 99.5t-21.5 123.5q0 74 10.5 146.5t37.5 148.5t67 133.5t105.5 94t147.5 36.5q68 0 127.5 -30.5t97.5 -86.5l21 84h133l-141 -592q-13 -50 -13 -67q0 -56 56 -56q64 0 124 46t99.5 114t63.5 142.5 t24 134.5q0 126 -44.5 228.5t-123 169t-184.5 102.5t-230 36q-126 0 -239.5 -54.5t-192.5 -144.5t-125.5 -208t-46.5 -242q0 -133 48 -252t130.5 -205.5t200 -137t250.5 -50.5q151 0 291 65.5t231 182.5l96 -52q-93 -138 -269 -224.5t-349 -86.5q-157 0 -298.5 60 t-243.5 162t-162 243.5t-60 298.5zM588 610q0 -59 22 -106t74 -47q19 0 43 6t41 12.5t47 22.5t40.5 21.5t43.5 26t35 21.5l84 369q-36 47 -90 72.5t-115 25.5q-48 0 -87.5 -32.5t-64.5 -81t-42 -107.5t-24 -110.5t-7 -92.5z" />
<glyph unicode="A" horiz-adv-x="1044" d="M25 0l409 1290h176l410 -1290h-168l-137 416h-385l-137 -416h-168zM369 551h307l-154 569z" />
<glyph unicode="B" horiz-adv-x="1028" d="M164 20v1270h317q127 0 203 -30q93 -38 141.5 -115t48.5 -180q0 -86 -56.5 -169t-137.5 -106q126 -7 196 -96t70 -219t-63.5 -224t-166 -138t-231.5 -44q-128 0 -321 51zM328 135q91 -26 153 -26q136 0 218.5 67.5t82.5 200.5q0 74 -23.5 122.5t-69.5 72t-96 32t-122 8.5 h-143v-477zM328 745h151q103 0 168.5 60t65.5 162q0 196 -234 196h-151v-418z" />
<glyph unicode="C" horiz-adv-x="1017" d="M113 645q0 93 17.5 186t57 182t96.5 157t142.5 109.5t187.5 41.5q86 0 176 -22.5t156 -65.5l-59 -107q-121 66 -273 66q-70 0 -128.5 -39.5t-96 -100t-64 -136.5t-38 -147t-11.5 -132q0 -71 9 -139.5t33.5 -142t61.5 -128t98.5 -90t139.5 -35.5q72 0 148.5 22t130.5 62 l70 -102q-67 -54 -166 -84.5t-191 -30.5q-108 0 -195 40.5t-142.5 106.5t-92.5 155.5t-52 182t-15 191.5z" />
<glyph unicode="D" horiz-adv-x="1120" d="M164 0v1290h373q107 0 190.5 -38t135 -99.5t85.5 -148t47 -174.5t13 -187q0 -98 -15.5 -188t-52.5 -174t-92.5 -145.5t-140.5 -98.5t-191 -37h-352zM326 131h190q66 0 119 22t87.5 62t59 88t37 108t18 114.5t5.5 113.5t-4.5 112.5t-16 115.5t-34 111.5t-56 92t-85.5 65.5 t-118 23h-202v-1028z" />
<glyph unicode="E" horiz-adv-x="929" d="M164 0v1290h663v-137h-499v-410h383v-141h-383v-461h520v-141h-684z" />
<glyph unicode="F" horiz-adv-x="843" d="M164 0v1290h606v-135h-442v-412h350v-141h-350v-602h-164z" />
<glyph unicode="G" horiz-adv-x="1073" d="M113 645q0 93 17.5 186t57 182t96.5 157t142.5 109.5t187.5 41.5q96 0 168 -20t166 -68l-63 -109q-114 70 -271 70q-68 0 -125.5 -37t-96 -96.5t-65.5 -134t-39 -148t-12 -141.5q0 -70 9 -139t33 -142.5t61 -129t98.5 -91t140.5 -35.5q107 0 181 29v422h151v-528 q-130 -54 -336 -54q-91 0 -167.5 27.5t-130 77t-94 113.5t-64 141.5t-34.5 155.5t-11 161z" />
<glyph unicode="H" horiz-adv-x="1122" d="M164 0v1290h164v-547h467v547h163v-1290h-163v604h-467v-604h-164z" />
<glyph unicode="I" horiz-adv-x="487" d="M164 0v1290h160v-1290h-160z" />
<glyph unicode="J" horiz-adv-x="501" d="M12 -223q166 56 166 178v1335h160v-1347q0 -59 -25 -107.5t-68.5 -81t-91.5 -53.5t-106 -35z" />
<glyph unicode="K" horiz-adv-x="993" d="M164 0v1290h164v-590l450 590h174l-495 -663l520 -578v-49h-164l-485 539v-539h-164z" />
<glyph unicode="L" horiz-adv-x="782" d="M164 0v1290h155v-1155h445v-135h-600z" />
<glyph unicode="M" horiz-adv-x="1519" d="M164 0v1290h217l379 -1089l379 1089h217v-1290h-164v877q0 31 2.5 75.5t5.5 73.5l2 29l-371 -1055h-143l-371 1057q11 -106 11 -176v-881h-164z" />
<glyph unicode="N" horiz-adv-x="1134" d="M164 0v1290h217l436 -987q-10 98 -10 180v807h164v-1290h-168l-486 1053q11 -104 11 -176v-877h-164z" />
<glyph unicode="O" horiz-adv-x="1122" d="M113 645q0 60 7 123t23 130t40 127.5t60.5 115t81.5 94t105.5 63t130.5 23.5q97 0 175.5 -44.5t128 -115t83.5 -161.5t48 -180t14 -175t-14 -175t-48 -180t-83.5 -161.5t-128 -115t-175.5 -44.5q-70 0 -130.5 23.5t-105.5 63t-81.5 94t-60.5 115t-40 127.5t-23 130 t-7 123zM276 645q0 -55 8 -120.5t29 -141.5t52 -137t82 -101.5t114 -40.5t114 40.5t82 101.5t52 137t29 141.5t8 120.5t-8 120.5t-29 141.5t-52 137t-82 101.5t-114 40.5t-114 -40.5t-82 -101.5t-52 -137t-29 -141.5t-8 -120.5z" />
<glyph unicode="P" horiz-adv-x="1001" d="M164 0v1290h278q79 0 149 -13.5t131.5 -44t105 -76t69 -113t25.5 -150.5q0 -190 -114 -311t-304 -121q-102 0 -176 41v-502h-164zM328 637q101 -43 166 -43q121 0 192.5 88.5t71.5 212.5q0 68 -25 119.5t-69.5 82.5t-100 46.5t-121.5 15.5h-114v-522z" />
<glyph unicode="Q" horiz-adv-x="1122" d="M113 645q0 60 7 123t23 130t40 127.5t60.5 115t81.5 94t105.5 63t130.5 23.5q97 0 175.5 -44.5t128 -115t83.5 -161.5t48 -180t14 -175q0 -94 -17.5 -191t-53.5 -191.5t-101.5 -168t-151.5 -104.5q129 -137 262 -137q41 0 74 8l-43 -156q-32 -4 -49 -4q-42 0 -83 12 t-71.5 28t-66 44.5t-56 48.5t-54 54t-48.5 49l-37 34q-87 11 -157 60t-114.5 118.5t-74.5 157t-42.5 172t-12.5 166.5zM276 645q0 -55 8 -120.5t29 -141.5t52 -137t82 -101.5t114 -40.5t114 40.5t82 101.5t52 137t29 141.5t8 120.5t-8 120.5t-29 141.5t-52 137t-82 101.5 t-114 40.5t-114 -40.5t-82 -101.5t-52 -137t-29 -141.5t-8 -120.5z" />
<glyph unicode="R" horiz-adv-x="1034" d="M164 0v1290h278q79 0 149 -13.5t131.5 -44t105 -76t69 -113t25.5 -150.5q0 -158 -84 -275t-236 -147l381 -422v-49h-160l-424 471q-30 10 -71 31v-502h-164zM328 637q92 -43 151 -43q129 0 204 85t75 216q0 68 -25 119.5t-69.5 82.5t-100 46.5t-121.5 15.5h-114v-522z " />
<glyph unicode="S" horiz-adv-x="888" d="M92 983q0 161 98 249.5t261 88.5q88 0 173.5 -41t129.5 -111l-92 -77q-36 45 -94 71.5t-117 26.5q-86 0 -142.5 -48.5t-56.5 -133.5q0 -61 30.5 -111t79.5 -86t107.5 -70.5t117.5 -73t108 -83.5t79.5 -113t30.5 -152q0 -158 -110 -254t-271 -96q-76 0 -160.5 34 t-146.5 87l69 117q50 -42 118 -74.5t122 -32.5q97 0 159 62.5t62 159.5q0 54 -30.5 100t-79.5 81t-108 69.5t-118.5 74t-108.5 84t-79.5 109.5t-30.5 143z" />
<glyph unicode="T" horiz-adv-x="829" d="M20 1147v143h789v-143h-315v-1147h-160v1147h-314z" />
<glyph unicode="U" horiz-adv-x="1142" d="M162 502v788h164v-790q0 -396 245 -396q246 0 246 398v788h164v-796q0 -84 -13 -158t-43.5 -142.5t-76.5 -117.5t-117 -78t-160 -29t-159.5 29.5t-116.5 79t-76.5 119t-43.5 145t-13 160.5z" />
<glyph unicode="V" horiz-adv-x="1044" d="M12 1290h178l336 -1093l338 1093h170l-422 -1290h-180z" />
<glyph unicode="W" horiz-adv-x="1449" d="M20 1290h175l198 -913q7 -32 11.5 -65.5t5.5 -51.5v-18l235 1048h164l235 -1048q1 63 17 135l207 913h166l-304 -1290h-174l-229 1042l-229 -1042h-174z" />
<glyph unicode="X" horiz-adv-x="1007" d="M20 0l383 662l-372 628h178l285 -473l274 473h168l-354 -620l401 -670h-188l-303 512l-293 -512h-179z" />
<glyph unicode="Y" horiz-adv-x="964" d="M27 1290h174l286 -643l289 643h164l-377 -817v-473h-162v473z" />
<glyph unicode="Z" horiz-adv-x="937" d="M74 0v139q285 563 557 1010h-512v141h702v-141q-298 -490 -567 -1006h623v-143h-803z" />
<glyph unicode="[" horiz-adv-x="507" d="M57 -319v1818h318v-119h-191v-1581h191v-118h-318z" />
<glyph unicode="\" horiz-adv-x="686" d="M25 1550h127q133 -466 232.5 -814t147 -513t77.5 -271t38 -132.5t15 -51t20 -71.5h-127z" />
<glyph unicode="]" horiz-adv-x="509" d="M135 -201h191v1581h-191v119h318v-1818h-318v118z" />
<glyph unicode="^" horiz-adv-x="1277" d="M145 655q103 180 211.5 379t165.5 308l58 108h114q405 -746 434 -795h-143q-98 180 -185 337.5t-125 224.5l-38 67q-127 -233 -348 -629h-144z" />
<glyph unicode="_" d="M0 -154h922v-122h-922v122z" />
<glyph unicode="`" horiz-adv-x="692" d="M92 1411l127 129q107 -147 316 -299l-66 -92q-241 129 -377 262z" />
<glyph unicode="a" horiz-adv-x="954" d="M86 246q0 75 59 182l482 205v129q0 71 -43 108t-115 37q-70 0 -147 -44t-129 -103l-58 96q62 77 158 127.5t190 50.5q137 0 218 -68.5t81 -203.5v-625q0 -29 18 -45t48 -16q26 0 41 12l39 -78q-61 -37 -119 -37q-82 0 -131 49.5t-49 131.5q-25 -87 -105.5 -136 t-175.5 -49q-123 0 -192.5 76.5t-69.5 200.5zM240 252q0 -67 37 -113.5t102 -46.5q73 0 132 56.5t87.5 132t28.5 145.5v84l-361 -152q-26 -58 -26 -106z" />
<glyph unicode="b" horiz-adv-x="1030" d="M168 92v1329h156v-493q43 48 113 77t136 29q72 0 132.5 -29t101.5 -76.5t69 -110t41 -128t13 -131.5q0 -91 -12 -172t-43 -159.5t-79 -134t-125 -90t-175 -34.5q-79 0 -169.5 35.5t-158.5 87.5zM324 178q34 -38 91.5 -61t110.5 -23q72 0 123 46t75.5 119.5t35 141.5 t10.5 136q0 62 -8.5 119t-30.5 117t-68 96t-112 36q-60 0 -123 -32t-104 -80v-615z" />
<glyph unicode="c" horiz-adv-x="843" d="M100 492q0 74 14.5 148.5t46 146t77.5 126t114 88t150 33.5q69 0 141 -27.5t121 -74.5l-70 -92q-38 31 -89.5 51t-100.5 20q-65 0 -115.5 -41t-78 -104.5t-41 -128.5t-13.5 -125q0 -65 13.5 -133t41.5 -135t81.5 -109.5t123.5 -42.5q86 0 225 90l52 -96 q-58 -50 -138 -83.5t-151 -33.5q-82 0 -150.5 31t-114.5 82.5t-78 119.5t-46.5 141t-14.5 149z" />
<glyph unicode="d" horiz-adv-x="1048" d="M102 444q0 94 12 176t43 159.5t78.5 132.5t123 88.5t173.5 33.5q87 0 197 -30v417h156v-1233q0 -22 1 -36t5.5 -35t17 -33t31.5 -14l-43 -101q-39 2 -65 9.5t-48 29.5q-22 23 -34.5 64t-12.5 78q-22 -86 -102.5 -133.5t-173.5 -47.5q-72 0 -133 29t-102 76.5t-69.5 110 t-41.5 128t-13 131.5zM262 467q0 -43 6 -89.5t22 -98.5t40 -93t63 -67.5t88 -26.5q60 0 109 37.5t78.5 94.5t45 118.5t15.5 116.5v413q-85 37 -184 37q-72 0 -125 -28t-82.5 -70.5t-47.5 -104.5t-23 -117t-5 -122z" />
<glyph unicode="e" horiz-adv-x="964" d="M100 528q0 93 29.5 183t82.5 162t135 116.5t179 44.5t176.5 -56t122.5 -141.5t49 -181.5q1 -17 2.5 -52t2.5 -52h-619v-39q0 -60 12.5 -127t39 -135.5t76.5 -113t116 -44.5q52 0 134.5 41t149.5 86l50 -98q-72 -62 -170 -107t-181 -45q-84 0 -152 35.5t-111 92t-72 131.5 t-40.5 149.5t-11.5 150.5zM279 668h436q0 93 -56 168t-147 75q-89 0 -150.5 -73t-82.5 -170z" />
<glyph unicode="f" horiz-adv-x="585" d="M51 903v101h135v159q0 244 351 285l28 -121q-8 0 -27 -2.5t-54.5 -14t-65.5 -30t-53 -56.5t-23 -87v-133h199v-119h-199v-885h-156v885z" />
<glyph unicode="g" horiz-adv-x="931" d="M82 -170q0 38 12 71.5t28.5 55.5t47 46t52.5 37t61 34q-56 6 -96 42t-40 87q0 30 12.5 56t28.5 42.5t45.5 34t47.5 25.5t51 22q-98 35 -157.5 120.5t-59.5 190.5q0 151 96 245.5t248 94.5q93 0 149 -30h277v-123h-146q22 -38 34.5 -92t12.5 -101q0 -111 -70 -196.5 t-179 -118.5q-1 0 -23 -6.5t-30.5 -9.5t-32 -11t-35.5 -14t-32 -15t-31 -18.5t-23 -20.5t-17.5 -23.5t-5.5 -25.5q0 -71 254 -71h70q100 0 168.5 -56.5t68.5 -152.5q0 -85 -40.5 -155t-105.5 -113.5t-143 -67t-157 -23.5q-62 0 -118.5 12t-108.5 38t-82.5 75t-30.5 115z M233 -139q0 -80 56.5 -119t140.5 -39q65 0 129.5 26.5t111 80t46.5 120.5q0 39 -18 64.5t-50.5 36.5t-61 14.5t-67.5 3.5h-121q-37 -20 -59 -34.5t-50.5 -38.5t-42.5 -53t-14 -62zM264 700q0 -87 51.5 -157t135.5 -70t135 70t51 157t-51 157.5t-135 70.5t-135.5 -70.5 t-51.5 -157.5z" />
<glyph unicode="h" horiz-adv-x="1062" d="M168 0v1421h156v-491q56 40 151.5 72t173.5 32q77 0 128.5 -20t77 -59.5t35 -84t9.5 -108.5v-762h-156v762q0 75 -24 110t-96 35q-78 0 -167 -33.5t-132 -70.5v-803h-156z" />
<glyph unicode="i" horiz-adv-x="487" d="M123 1284q0 46 35.5 77.5t81.5 31.5q45 0 78.5 -30t33.5 -75q0 -46 -35 -77t-81 -31t-79.5 29.5t-33.5 74.5zM168 0v1004h151v-1004h-151z" />
<glyph unicode="j" horiz-adv-x="487" d="M2 -285q68 26 117 72t49 109v1108h151v-1123q0 -59 -23 -105.5t-65.5 -78.5t-88 -52.5t-105.5 -37.5zM123 1284q0 46 35.5 77.5t81.5 31.5q45 0 78.5 -30t33.5 -75q0 -46 -35 -77t-81 -31t-79.5 29.5t-33.5 74.5z" />
<glyph unicode="k" horiz-adv-x="964" d="M168 0v1421h156v-837l362 420h184l-368 -433l454 -534v-37h-163l-469 559v-559h-156z" />
<glyph unicode="l" horiz-adv-x="483" d="M156 403v1018h151v-1018q0 -202 62 -403h-162q-51 138 -51 403z" />
<glyph unicode="m" horiz-adv-x="1579" d="M168 0v1004h156v-74q146 104 276 104q183 0 238 -106q54 42 146.5 74t160.5 32q138 0 204 -67t66 -205v-762h-155v762q0 73 -29 109t-101 36q-68 0 -139 -25t-123 -67q2 -18 2 -53v-762h-155v762q0 73 -28.5 109t-100.5 36q-131 0 -262 -104v-803h-156z" />
<glyph unicode="n" horiz-adv-x="1062" d="M168 0v1004h156v-74q56 40 151.5 72t173.5 32q77 0 128.5 -20t77 -59.5t35 -84t9.5 -108.5v-762h-156v762q0 75 -24 110t-96 35q-78 0 -168.5 -34.5t-130.5 -69.5v-803h-156z" />
<glyph unicode="o" horiz-adv-x="999" d="M100 500q0 73 14.5 146.5t47 143.5t78 124t113 87t147.5 33t147.5 -33t113 -87t77.5 -124t46.5 -143.5t14.5 -146.5t-15 -146t-47 -142.5t-77.5 -123.5t-113 -86.5t-146.5 -32.5t-146.5 32.5t-113 86.5t-78 123.5t-47.5 142.5t-15 146zM256 500q0 -61 15 -129t43 -132 t77 -105.5t109 -41.5t109 41.5t77 105.5t42.5 132t14.5 129t-14.5 129.5t-42.5 133t-77 106.5t-109 42t-109 -42t-77 -106.5t-43 -133t-15 -129.5z" />
<glyph unicode="p" horiz-adv-x="1056" d="M172 -360v1364h156v-76q52 46 127 76t143 30q72 0 132.5 -29t101 -76.5t69 -110t41 -128t12.5 -131.5q0 -79 -9 -153.5t-34 -156.5t-64.5 -142t-106.5 -99t-154 -39q-88 0 -155.5 40t-102.5 118v-487h-156zM328 498q0 -68 10.5 -131.5t35.5 -129t76.5 -105.5t124.5 -40 q56 0 97.5 33.5t64.5 81.5t36.5 113t17.5 115.5t4 101.5q0 48 -5 94t-19.5 99t-37.5 91.5t-64 64t-94 25.5q-61 0 -129 -35t-118 -83v-295z" />
<glyph unicode="q" horiz-adv-x="1056" d="M102 481q0 96 23.5 190t69.5 177t127 134.5t184 51.5q152 0 381 -63v-1331h-156v487q-36 -78 -103.5 -118t-154.5 -40q-79 0 -143.5 31.5t-106 82.5t-69.5 119t-40 137.5t-12 141.5zM264 537q0 -43 2.5 -83t9.5 -94.5t22 -98.5t38 -83.5t60 -61.5t85 -22q49 0 99 29 q82 50 116.5 154t34.5 221v376q-82 33 -190 33q-71 0 -126.5 -33.5t-87 -88.5t-47.5 -118t-16 -130z" />
<glyph unicode="r" horiz-adv-x="653" d="M168 0v1004h158v-80q3 3 18.5 19t22 22t23 19.5t30 20t33 14.5t42 11.5t48.5 3.5q24 0 49 -7.5t38 -14.5l13 -8l-55 -140q-33 27 -92 27q-11 0 -22.5 -2t-23 -7t-20.5 -9t-21 -13.5t-18.5 -14t-19 -16.5t-16.5 -16l-16.5 -16.5l-14.5 -14.5v-782h-156z" />
<glyph unicode="s" horiz-adv-x="860" d="M96 768q0 68 29.5 120.5t79 83.5t108.5 46.5t123 15.5q91 0 175 -35.5t134 -103.5l-81 -82q-44 44 -108 72t-124 28q-71 0 -126.5 -35t-55.5 -102q0 -23 10 -44t21 -34t35.5 -29t35.5 -22t39 -20l189 -92q184 -90 184 -275q0 -73 -29.5 -130.5t-80 -91.5t-112.5 -51.5 t-132 -17.5q-75 0 -154.5 33.5t-138.5 85.5l57 111q55 -42 123 -75.5t121 -33.5q81 0 138.5 38.5t57.5 115.5q0 56 -33.5 91.5t-93.5 65.5l-213 107q-178 90 -178 260z" />
<glyph unicode="t" horiz-adv-x="626" d="M51 903v101h144v178h143v-178h203v-119h-199v-678q0 -62 21 -87.5t59 -25.5q23 0 52.5 7t47.5 15l19 7l34 -96q-10 -6 -28 -16t-72.5 -26t-107.5 -16q-80 0 -130.5 55t-50.5 175v686z" />
<glyph unicode="u" horiz-adv-x="1062" d="M164 242v762h155v-762q0 -75 22 -110.5t93 -35.5q68 0 161 35.5t144 81.5v791h156v-850q0 -17 1 -27t4.5 -24t13 -22t24.5 -9l-51 -103q-56 0 -96.5 31.5t-47.5 85.5q-62 -53 -151 -85t-172 -32q-139 0 -197.5 67t-58.5 206z" />
<glyph unicode="v" horiz-adv-x="925" d="M20 1004h168l277 -828q199 449 278 828h156q-131 -548 -360 -1004h-154z" />
<glyph unicode="w" horiz-adv-x="1372" d="M25 1004h163l230 -816l194 816h162l213 -816q125 379 203 816h149q-86 -519 -276 -1004h-166l-139 512q-15 54 -30.5 130.5t-23.5 126.5l-8 50q-24 -182 -57 -307l-137 -512h-172z" />
<glyph unicode="x" horiz-adv-x="868" d="M25 0l317 520l-301 484h170l217 -349l211 349h164l-293 -478l334 -526h-174l-244 391l-238 -391h-163z" />
<glyph unicode="y" horiz-adv-x="929" d="M23 1004h163l234 -658q39 -112 55 -205q153 381 275 863h155q-40 -155 -85 -308t-111 -345.5t-143.5 -353.5t-153.5 -249q-75 -88 -240 -129l-33 119q70 15 152 86q7 6 14 13t14 16.5t12 16.5t13 20t11.5 18t12 20.5t10 18.5t10.5 20l9 17z" />
<glyph unicode="z" horiz-adv-x="872" d="M70 0v133q283 469 518 739h-477v132h657v-136q-289 -351 -518 -735h557v-133h-737z" />
<glyph unicode="{" horiz-adv-x="681" d="M82 541v96q64 0 116 72t52 174v360q0 69 12.5 119.5t31 78t47.5 43.5t53.5 20.5t56.5 4.5h120l23 -110h-121q-58 0 -78 -36.5t-20 -148.5v-360q0 -52 -15.5 -98.5t-38 -76.5t-45 -52.5t-38.5 -32.5l-15 -10q6 -3 16.5 -9.5t36.5 -30t46 -51t36.5 -73.5t16.5 -98v-361 q0 -113 21.5 -147.5t88.5 -34.5h109l-23 -111h-116q-32 0 -57 4t-54.5 20t-48.5 43t-32 77.5t-13 119.5v361q0 102 -52 175t-116 73z" />
<glyph unicode="|" horiz-adv-x="454" d="M166 -37v1585h123v-1585h-123z" />
<glyph unicode="}" horiz-adv-x="681" d="M82 -221h108q67 0 89 35t22 147v361q0 52 15.5 97.5t38 74.5t45 50.5t38.5 30.5l15 9q-6 4 -16.5 10.5t-36.5 31.5t-46 53.5t-36.5 75.5t-16.5 99v360q0 112 -20 148.5t-78 36.5h-121l22 110h121q32 0 56.5 -4.5t53.5 -20.5t47.5 -43.5t31 -78t12.5 -119.5v-360 q0 -102 52 -174t116 -72v-96q-64 0 -116 -73t-52 -175v-361q0 -69 -13 -119.5t-32 -77.5t-48.5 -43t-54.5 -20t-57 -4h-117z" />
<glyph unicode="~" horiz-adv-x="1363" d="M299 504v127q24 54 73 90.5t105 36.5q51 0 110 -22t103.5 -48t102 -48t106.5 -22q113 0 166 119l-2 -147q-25 -47 -74.5 -77t-103.5 -30q-51 0 -110 22t-104 48t-102.5 48t-105.5 22q-61 0 -98 -30t-66 -89z" />
<glyph unicode="&#xa1;" horiz-adv-x="540" d="M119 905q0 52 39.5 89.5t91.5 37.5q48 0 83.5 -33.5t35.5 -83.5t-39.5 -87t-91.5 -37q-48 0 -83.5 32.5t-35.5 81.5zM143 -430q35 196 35 395v705h123q3 -52 10.5 -185.5t10.5 -198.5t6.5 -171t3.5 -199q0 -174 -33 -326z" />
<glyph unicode="&#xa2;" horiz-adv-x="843" d="M100 492q0 237 101 372q45 63 109.5 106t138.5 58v141h92v-139q59 -6 121 -32.5t102 -65.5l-70 -92q-63 51 -153 65v-811q83 10 200 88l52 -96q-46 -43 -116.5 -74.5t-135.5 -40.5v-123h-92v123q-134 21 -226 131q-123 142 -123 390zM256 512q0 -55 10 -114t31.5 -120 t60.5 -108.5t91 -67.5v795q-52 -17 -91.5 -61t-60.5 -100.5t-31 -112.5t-10 -111z" />
<glyph unicode="&#xa3;" horiz-adv-x="905" d="M61 791l41 102h80v270q0 53 19 96.5t51 72.5t75 48.5t89 28t96 8.5q57 0 117.5 -14t95.5 -43l-35 -94q-64 37 -166 37q-87 0 -136.5 -42t-49.5 -128v-240h274v-123h-274v-260q0 -182 -47 -385h145q119 -39 180 -39q48 0 97.5 26.5t79.5 65.5l22 -102 q-41 -46 -102.5 -76.5t-118.5 -30.5q-27 0 -71.5 7.5t-75.5 15.5l-31 8h-307q73 325 73 514v264z" />
<glyph unicode="&#xa4;" horiz-adv-x="1110" d="M20 498l62 129h149q-2 27 -2 63q0 39 2 66h-211l62 129h164q16 149 82.5 267t183.5 189.5t266 71.5q205 0 348 -143l-57 -123q-113 137 -301 137q-166 0 -260.5 -103t-118.5 -296h561l-61 -129h-516q-4 -54 -4 -68q0 -15 4 -61h456l-61 -129h-379q23 -191 120 -292.5 t239 -101.5q86 0 171 43t146 119v-164q-58 -58 -142 -92.5t-186 -34.5q-195 0 -331.5 142t-159.5 381h-226z" />
<glyph unicode="&#xa5;" horiz-adv-x="974" d="M25 1290h174l288 -643l289 643h172q-237 -518 -239 -518h247v-123h-303l-84 -182v-10h383v-123h-383v-334h-163v334h-375v123h375v12l-84 180h-287v123h229z" />
<glyph unicode="&#xa7;" horiz-adv-x="860" d="M43 -190l57 112q148 -90 308 -90q85 0 140.5 42.5t55.5 125.5q0 45 -28.5 82t-74.5 64t-101.5 52t-111 52.5t-101.5 59t-74.5 77.5t-28.5 102q0 124 73.5 194.5t200.5 88.5q-116 55 -154 80q-111 76 -112 186q0 94 48.5 160.5t124 96.5t167.5 30q158 0 295 -78l-55 -106 q-137 65 -244 65q-79 0 -130.5 -42.5t-51.5 -119.5q0 -37 28.5 -69t73.5 -56.5t100 -49t110 -54.5t100 -65t73.5 -87t28.5 -116q0 -109 -59 -179t-166 -94q46 -23 77.5 -43t67 -50.5t54 -69.5t18.5 -84q0 -153 -98.5 -235.5t-254.5 -82.5q-184 0 -356 101zM238 496 q0 -57 52 -93t111 -36q91 0 153 41.5t62 128.5q0 65 -52 105t-120 40q-94 0 -150 -47t-56 -139z" />
<glyph unicode="&#xa8;" horiz-adv-x="786" d="M121 1276q0 45 36 83t81 38q34 0 59 -23.5t25 -58.5q0 -45 -39 -80t-84 -35q-33 0 -55.5 21.5t-22.5 54.5zM436 1276q0 45 36 83t81 38q34 0 59 -23.5t25 -58.5q0 -45 -39 -80t-84 -35q-33 0 -55.5 21.5t-22.5 54.5z" />
<glyph unicode="&#xa9;" horiz-adv-x="1800" d="M246 502q0 133 51.5 255t139.5 210t210 140t256 52q180 0 331.5 -87.5t240 -239t88.5 -330.5q0 -134 -52.5 -256.5t-141.5 -211t-211 -140.5t-255 -52q-178 0 -329.5 89t-239.5 241t-88 330zM346 502q0 -155 75 -283.5t204.5 -202t283.5 -73.5q113 0 215.5 44.5 t176.5 119.5t117.5 178.5t43.5 216.5t-44.5 216.5t-119.5 178.5t-178.5 119.5t-216.5 44.5q-114 0 -217 -44.5t-177.5 -119.5t-118.5 -178.5t-44 -216.5zM594 500q0 73 20 138.5t57.5 117.5t98.5 83t137 31q54 0 112 -21.5t97 -57.5l-55 -70q-28 24 -71.5 37.5t-82.5 13.5 q-55 0 -94.5 -23t-61 -62.5t-31 -84t-9.5 -96.5q0 -43 6.5 -81.5t22.5 -74.5t39.5 -62t60 -41.5t82.5 -15.5q38 0 86 21t86 49l43 -68q-41 -38 -104.5 -68t-114.5 -30q-152 0 -238 105t-86 260z" />
<glyph unicode="&#xaa;" horiz-adv-x="860" d="M96 768q0 68 29.5 120.5t79 83.5t108.5 46.5t123 15.5q91 0 175 -35.5t134 -103.5l-81 -82q-44 44 -108 72t-124 28q-71 0 -126.5 -35t-55.5 -102q0 -23 10 -44t21 -34t35.5 -29t35.5 -22t39 -20l189 -92q184 -90 184 -275q0 -73 -29.5 -130.5t-80 -91.5t-112.5 -51.5 t-132 -17.5q-75 0 -154.5 33.5t-138.5 85.5l57 111q55 -42 123 -75.5t121 -33.5q81 0 138.5 38.5t57.5 115.5q0 56 -33.5 91.5t-93.5 65.5l-213 107q-178 90 -178 260zM117 1409l65 92q118 -64 248 -205q4 4 25.5 24t27.5 26t25 24t28 25t26.5 22t29.5 23.5t28 20t31 21 t31 17.5l66 -92q-204 -145 -316 -299q-136 178 -315 301z" />
<glyph unicode="&#xab;" horiz-adv-x="1024" d="M68 512l378 385l97 -78l-305 -307l309 -307l-96 -78zM432 512l379 385l96 -78l-305 -307l309 -307l-96 -78z" />
<glyph unicode="&#xac;" horiz-adv-x="1095" d="M94 760v123h826v-523l-121 -22v422h-705z" />
<glyph unicode="&#xad;" horiz-adv-x="618" d="M111 461v123h391v-123h-391z" />
<glyph unicode="&#xae;" horiz-adv-x="1800" d="M242 500q0 135 51.5 256.5t139 209.5t209.5 139.5t257 51.5t257 -51.5t209.5 -139.5t139 -209.5t51.5 -256.5q0 -180 -87.5 -331.5t-239 -240t-330.5 -88.5q-178 0 -329.5 89t-239.5 241t-88 330zM342 500q0 -118 44 -222t119 -177.5t179.5 -116.5t220.5 -43 q152 0 279 75.5t199.5 204t72.5 279.5q0 113 -44 216.5t-119 178.5t-178 119.5t-216 44.5q-114 0 -217 -44.5t-177.5 -119.5t-118.5 -178.5t-44 -216.5zM688 145v727h176q79 0 144.5 -23t110 -78.5t44.5 -135.5q0 -85 -57 -160t-139 -82l225 -217v-31h-109l-245 248 q-21 5 -45 19v-267h-105zM793 498q60 -27 94 -27q77 0 122.5 45.5t45.5 122.5t-54.5 113t-136.5 36h-71v-290z" />
<glyph unicode="&#xaf;" horiz-adv-x="686" d="M61 1174v120h562v-120h-562z" />
<glyph unicode="&#xb0;" horiz-adv-x="720" d="M68 1038q0 117 83.5 201t200.5 84t201 -84t84 -201t-84 -200.5t-201 -83.5t-200.5 83.5t-83.5 200.5zM160 1038q0 -80 56 -136t136 -56t136.5 56.5t56.5 135.5q0 80 -56.5 136.5t-136.5 56.5q-79 0 -135.5 -56.5t-56.5 -136.5z" />
<glyph unicode="&#xb1;" horiz-adv-x="915" d="M92 451v122h330v355h119v-355h331v-122h-331v-256h-119v256h-330zM113 -2v123h739v-123h-739z" />
<glyph unicode="&#xb4;" horiz-adv-x="692" d="M121 1241q92 67 170.5 141.5t111.5 115.5l33 42l127 -129q-16 -15 -45.5 -41.5t-127.5 -95.5t-204 -125z" />
<glyph unicode="&#xb5;" horiz-adv-x="1062" d="M127 -360q23 52 41 117.5t18 111.5q0 63 -11 187t-11 186v762h155v-762q0 -75 22 -110.5t93 -35.5q69 0 161.5 35.5t143.5 81.5v791h156v-850q0 -17 1 -27t4.5 -24.5t13 -22t24.5 -8.5l-51 -103q-56 0 -96.5 31.5t-47.5 85.5q-63 -52 -152 -84.5t-171 -32.5q-29 0 -88 31 q39 -119 39 -180q0 -77 -39 -144z" />
<glyph unicode="&#xb6;" horiz-adv-x="1112" d="M55 928q0 172 105.5 282.5t275.5 110.5q54 0 114 -5.5t132 -14t113 -11.5l-2 88h114q0 -59 -2 -88l113 19l-6 -105l-107 -24q0 -348 -69.5 -741t-200.5 -660l-131 41q95 173 161.5 421.5t94.5 484t28 454.5q-24 2 -90 10t-112 12t-90 4q-45 0 -78 -22.5t-49.5 -60 t-23.5 -76t-7 -80.5q0 -51 7.5 -99t25.5 -98.5t56.5 -81.5t92.5 -31q87 0 166 62q-50 -100 -119 -151.5t-174 -51.5q-84 0 -150.5 35t-106.5 94t-60.5 131t-20.5 152z" />
<glyph unicode="&#xb7;" horiz-adv-x="528" d="M147 494q0 51 40 87.5t92 36.5q48 0 83 -32.5t35 -81.5q0 -50 -39.5 -87.5t-91.5 -37.5q-48 0 -83.5 33t-35.5 82z" />
<glyph unicode="&#xb8;" horiz-adv-x="823" d="M389 -2h213q30 -22 53 -58t23 -69q0 -67 -68 -131t-143 -96l-78 63q106 58 140 98q26 29 26 56t-18.5 43t-47.5 16q-26 0 -100 -18v96z" />
<glyph unicode="&#xba;" horiz-adv-x="843" d="M100 492q0 74 14.5 148.5t46 146t77.5 126t114 88t150 33.5q69 0 141 -27.5t121 -74.5l-70 -92q-38 31 -89.5 51t-100.5 20q-65 0 -115.5 -41t-78 -104.5t-41 -128.5t-13.5 -125q0 -65 13.5 -133t41.5 -135t81.5 -109.5t123.5 -42.5q86 0 225 90l52 -96 q-58 -50 -138 -83.5t-151 -33.5q-82 0 -150.5 31t-114.5 82.5t-78 119.5t-46.5 141t-14.5 149zM256 1241q92 67 170.5 141.5t111.5 115.5l33 42l127 -129q-16 -15 -45 -41.5t-127 -95.5t-204 -125z" />
<glyph unicode="&#xbb;" horiz-adv-x="1024" d="M131 205l96 -78l383 385l-379 385l-96 -78l305 -307zM496 205l96 -78l383 385l-379 385l-96 -78l305 -307z" />
<glyph unicode="&#xbf;" horiz-adv-x="733" d="M86 -164q0 57 26 111t74 119l164 215q46 62 63 122t17 164v99h125v-99q0 -87 -2 -127.5t-20 -102.5t-56 -112l-168 -225q-69 -90 -69 -160q0 -59 30 -94t88 -35q85 0 172 19v-117q-114 -27 -184 -27q-121 0 -190.5 63.5t-69.5 186.5zM369 909q0 52 39.5 88.5t91.5 36.5 q49 0 83.5 -32t34.5 -82t-39.5 -87.5t-91.5 -37.5q-48 0 -83 32.5t-35 81.5z" />
<glyph unicode="&#xc0;" horiz-adv-x="1044" d="M25 0l409 1290h176l410 -1290h-168l-137 416h-385l-137 -416h-168zM307 1677l127 129q107 -147 316 -299l-66 -92q-241 129 -377 262zM369 551h307l-154 569z" />
<glyph unicode="&#xc1;" horiz-adv-x="1044" d="M25 0l409 1290h176l410 -1290h-168l-137 416h-385l-137 -416h-168zM307 1507q92 67 171 141.5t112 115.5l33 42l127 -129q-16 -15 -45.5 -41.5t-127.5 -95.5t-204 -125zM369 551h307l-154 569z" />
<glyph unicode="&#xc2;" horiz-adv-x="1044" d="M25 0l409 1290h176l410 -1290h-168l-137 416h-385l-137 -416h-168zM203 1505q164 113 313 301q127 -164 313 -299l-65 -94q-115 61 -248 205q-135 -146 -248 -205zM369 551h307l-154 569z" />
<glyph unicode="&#xc3;" horiz-adv-x="1044" d="M25 0l409 1290h176l410 -1290h-168l-137 416h-385l-137 -416h-168zM139 1581q76 60 134 89.5t112 29.5q48 0 98 -22.5t96.5 -45t86.5 -22.5q54 0 84 12.5t88 52.5l63 -78q-72 -68 -123.5 -91t-126.5 -23q-35 0 -80.5 22.5t-95.5 45t-96 22.5q-15 0 -31.5 -4t-29 -8.5 t-32 -15t-28.5 -16t-31 -19t-28 -17.5zM369 551h307l-154 569z" />
<glyph unicode="&#xc4;" horiz-adv-x="1044" d="M25 0l409 1290h176l410 -1290h-168l-137 416h-385l-137 -416h-168zM258 1542q0 45 36 83t81 38q34 0 59 -23.5t25 -58.5q0 -45 -39 -80t-84 -35q-33 0 -55.5 21.5t-22.5 54.5zM369 551h307l-154 569zM573 1542q0 45 36 83t81 38q34 0 59 -23.5t25 -58.5q0 -45 -39 -80 t-84 -35q-33 0 -55.5 21.5t-22.5 54.5z" />
<glyph unicode="&#xc5;" horiz-adv-x="1044" d="M25 0l409 1290h176l410 -1290h-168l-137 416h-385l-137 -416h-168zM309 1606q0 89 64.5 153t152.5 64t150.5 -64t62.5 -153t-64 -153t-153 -64q-88 0 -150.5 64t-62.5 153zM369 551h307l-154 569zM401 1606q0 -49 36.5 -86t84.5 -37q50 0 86.5 36.5t36.5 86.5t-35 86.5 t-82 36.5q-52 0 -89.5 -36.5t-37.5 -86.5z" />
<glyph unicode="&#xc6;" horiz-adv-x="1486" d="M25 0l407 1290h191l98 -432v432h663v-137h-499v-410h383v-141h-383v-461h520v-141h-684v416h-389l-137 -416h-170zM371 551h305l-154 569z" />
<glyph unicode="&#xc7;" horiz-adv-x="1017" d="M113 645q0 93 17.5 186t57 182t96.5 157t142.5 109.5t187.5 41.5q84 0 176 -23t156 -65l-59 -107q-127 68 -273 68q-82 0 -154 -62t-112 -145q-72 -147 -72 -350q0 -70 9 -139t33.5 -143t61.5 -129.5t98.5 -91.5t139.5 -36q70 0 147.5 24.5t129.5 65.5l72 -104 q-48 -38 -117 -67t-133 -40q53 -53 53 -106q0 -67 -68 -131t-143 -96l-78 63q106 58 140 98q26 29 26 56t-18.5 43t-46.5 16q-27 0 -101 -18v82q-69 19 -126 57.5t-96.5 91t-68.5 113.5t-45.5 130t-24 135t-7.5 134z" />
<glyph unicode="&#xc8;" horiz-adv-x="929" d="M164 0v1290h663v-137h-499v-410h383v-141h-383v-461h520v-141h-684zM285 1677l127 129q114 -153 315 -299l-65 -92q-233 124 -377 262z" />
<glyph unicode="&#xc9;" horiz-adv-x="929" d="M164 0v1290h663v-137h-499v-410h383v-141h-383v-461h520v-141h-684zM289 1507q58 42 111.5 88t89 82.5t62.5 66.5t40 46l12 16l127 -129q-16 -15 -45.5 -41.5t-127.5 -95.5t-204 -125z" />
<glyph unicode="&#xca;" horiz-adv-x="929" d="M164 0v1290h663v-137h-499v-410h383v-141h-383v-461h520v-141h-684zM184 1505q166 114 314 301q131 -169 313 -299l-66 -94q-113 60 -247 205q-142 -150 -248 -205z" />
<glyph unicode="&#xcb;" horiz-adv-x="929" d="M164 0v1290h663v-137h-499v-410h383v-141h-383v-461h520v-141h-684zM240 1542q0 45 35 83t81 38q34 0 58 -23.5t24 -58.5q0 -45 -38 -80t-83 -35q-33 0 -55 21.5t-22 54.5zM555 1542q0 45 35.5 83t81.5 38q34 0 58 -23.5t24 -58.5q0 -45 -38 -80t-83 -35 q-33 0 -55.5 21.5t-22.5 54.5z" />
<glyph unicode="&#xcc;" horiz-adv-x="487" d="M25 1677l127 129q112 -154 315 -299l-66 -92q-235 124 -376 262zM164 0v1290h160v-1290h-160z" />
<glyph unicode="&#xcd;" horiz-adv-x="487" d="M23 1507q58 42 111.5 88t89 82.5t62.5 66.5t40 46l12 16l127 -129q-16 -15 -45.5 -41.5t-127.5 -95.5t-204 -125zM164 0v1290h160v-1290h-160z" />
<glyph unicode="&#xce;" horiz-adv-x="487" d="M-70 1505q166 114 314 301q127 -164 313 -299l-65 -94q-115 61 -248 205q-135 -146 -248 -205zM164 0v1290h160v-1290h-160z" />
<glyph unicode="&#xcf;" horiz-adv-x="487" d="M-14 1542q0 45 35.5 83t80.5 38q34 0 59 -23.5t25 -58.5q0 -45 -39 -80t-84 -35q-33 0 -55 21.5t-22 54.5zM164 0v1290h160v-1290h-160zM301 1542q0 45 36 83t81 38q34 0 59 -23.5t25 -58.5q0 -45 -39 -80t-84 -35q-33 0 -55.5 21.5t-22.5 54.5z" />
<glyph unicode="&#xd1;" horiz-adv-x="1134" d="M164 0v1290h217l436 -987q-10 98 -10 180v807h164v-1290h-168l-486 1053q11 -104 11 -176v-877h-164zM195 1581q76 60 133.5 89.5t111.5 29.5q48 0 98 -22.5t96.5 -45t86.5 -22.5q54 0 84 12.5t88 52.5l63 -78q-73 -68 -123.5 -91t-125.5 -23q-35 0 -81 22.5t-96 45 t-96 22.5q-15 0 -31.5 -4t-29 -8.5t-32 -15t-28.5 -16t-31 -19t-28 -17.5z" />
<glyph unicode="&#xd2;" horiz-adv-x="1122" d="M113 645q0 60 7 123t23 130t40 127.5t60.5 115t81.5 94t105.5 63t130.5 23.5q97 0 175.5 -44.5t128 -115t83.5 -161.5t48 -180t14 -175t-14 -175t-48 -180t-83.5 -161.5t-128 -115t-175.5 -44.5q-70 0 -130.5 23.5t-105.5 63t-81.5 94t-60.5 115t-40 127.5t-23 130 t-7 123zM276 645q0 -55 8 -120.5t29 -141.5t52 -137t82 -101.5t114 -40.5t114 40.5t82 101.5t52 137t29 141.5t8 120.5t-8 120.5t-29 141.5t-52 137t-82 101.5t-114 40.5t-114 -40.5t-82 -101.5t-52 -137t-29 -141.5t-8 -120.5zM336 1677l127 129q108 -149 315 -299l-65 -92 q-241 129 -377 262z" />
<glyph unicode="&#xd3;" horiz-adv-x="1122" d="M113 645q0 60 7 123t23 130t40 127.5t60.5 115t81.5 94t105.5 63t130.5 23.5q97 0 175.5 -44.5t128 -115t83.5 -161.5t48 -180t14 -175t-14 -175t-48 -180t-83.5 -161.5t-128 -115t-175.5 -44.5q-70 0 -130.5 23.5t-105.5 63t-81.5 94t-60.5 115t-40 127.5t-23 130 t-7 123zM276 645q0 -55 8 -120.5t29 -141.5t52 -137t82 -101.5t114 -40.5t114 40.5t82 101.5t52 137t29 141.5t8 120.5t-8 120.5t-29 141.5t-52 137t-82 101.5t-114 40.5t-114 -40.5t-82 -101.5t-52 -137t-29 -141.5t-8 -120.5zM342 1507q58 42 111.5 88t89 82.5t62.5 66.5 t39 46l13 16l127 -129q-16 -15 -45 -41.5t-127 -95.5t-204 -125z" />
<glyph unicode="&#xd4;" horiz-adv-x="1122" d="M113 645q0 60 7 123t23 130t40 127.5t60.5 115t81.5 94t105.5 63t130.5 23.5q97 0 175.5 -44.5t128 -115t83.5 -161.5t48 -180t14 -175t-14 -175t-48 -180t-83.5 -161.5t-128 -115t-175.5 -44.5q-70 0 -130.5 23.5t-105.5 63t-81.5 94t-60.5 115t-40 127.5t-23 130 t-7 123zM246 1511q161 109 313 301q127 -164 313 -299l-65 -94q-111 57 -248 205q-131 -145 -248 -205zM276 645q0 -55 8 -120.5t29 -141.5t52 -137t82 -101.5t114 -40.5t114 40.5t82 101.5t52 137t29 141.5t8 120.5t-8 120.5t-29 141.5t-52 137t-82 101.5t-114 40.5 t-114 -40.5t-82 -101.5t-52 -137t-29 -141.5t-8 -120.5z" />
<glyph unicode="&#xd5;" horiz-adv-x="1122" d="M113 645q0 60 7 123t23 130t40 127.5t60.5 115t81.5 94t105.5 63t130.5 23.5q97 0 175.5 -44.5t128 -115t83.5 -161.5t48 -180t14 -175t-14 -175t-48 -180t-83.5 -161.5t-128 -115t-175.5 -44.5q-70 0 -130.5 23.5t-105.5 63t-81.5 94t-60.5 115t-40 127.5t-23 130 t-7 123zM176 1581q76 60 134 89.5t112 29.5q48 0 97.5 -22.5t96 -45t86.5 -22.5q54 0 84 12.5t88 52.5l64 -78q-72 -68 -123.5 -91t-126.5 -23q-35 0 -80.5 22.5t-95.5 45t-96 22.5q-15 0 -31.5 -4t-29 -8.5t-32 -15t-28.5 -16t-31 -19t-28 -17.5zM276 645q0 -55 8 -120.5 t29 -141.5t52 -137t82 -101.5t114 -40.5t114 40.5t82 101.5t52 137t29 141.5t8 120.5t-8 120.5t-29 141.5t-52 137t-82 101.5t-114 40.5t-114 -40.5t-82 -101.5t-52 -137t-29 -141.5t-8 -120.5z" />
<glyph unicode="&#xd6;" horiz-adv-x="1122" d="M113 645q0 60 7 123t23 130t40 127.5t60.5 115t81.5 94t105.5 63t130.5 23.5q97 0 175.5 -44.5t128 -115t83.5 -161.5t48 -180t14 -175t-14 -175t-48 -180t-83.5 -161.5t-128 -115t-175.5 -44.5q-70 0 -130.5 23.5t-105.5 63t-81.5 94t-60.5 115t-40 127.5t-23 130 t-7 123zM276 645q0 -55 8 -120.5t29 -141.5t52 -137t82 -101.5t114 -40.5t114 40.5t82 101.5t52 137t29 141.5t8 120.5t-8 120.5t-29 141.5t-52 137t-82 101.5t-114 40.5t-114 -40.5t-82 -101.5t-52 -137t-29 -141.5t-8 -120.5zM299 1542q0 45 36 83t81 38q34 0 59 -23.5 t25 -58.5q0 -45 -39 -80t-84 -35q-33 0 -55.5 21.5t-22.5 54.5zM614 1542q0 45 36 83t81 38q34 0 59 -23.5t25 -58.5q0 -45 -39 -80t-84 -35q-33 0 -55.5 21.5t-22.5 54.5z" />
<glyph unicode="&#xd8;" horiz-adv-x="1122" d="M113 653q0 71 10.5 144t31.5 149.5t57 143t84 118.5t116 82.5t149 30.5q75 0 139 -27l70 240h102l-84 -293q60 -48 104.5 -119.5t69 -153t36.5 -162t12 -161.5q0 -87 -14 -176t-47.5 -180t-83 -161t-128.5 -114.5t-176 -44.5q-60 0 -131 23l-80 -279h-102l94 330 q-81 63 -135 172t-74 217t-20 221zM276 633q0 -306 109 -443l279 971q-48 25 -103 25q-52 0 -95 -21.5t-72 -55.5t-51 -83t-34.5 -98t-20 -105.5t-10 -100.5t-2.5 -89zM467 123q49 -19 94 -19q61 0 109 26.5t78 73.5t50.5 100t30.5 118.5t13.5 117t3.5 105.5q0 296 -103 442 z" />
<glyph unicode="&#xd9;" horiz-adv-x="1142" d="M162 502v788h164v-790q0 -396 245 -396q246 0 246 398v788h164v-796q0 -84 -13 -158t-43.5 -142.5t-76.5 -117.5t-117 -78t-160 -29t-159.5 29.5t-116.5 79t-76.5 119t-43.5 145t-13 160.5zM354 1677l127 129q107 -147 316 -299l-66 -92q-241 129 -377 262z" />
<glyph unicode="&#xda;" horiz-adv-x="1142" d="M162 502v788h164v-790q0 -396 245 -396q246 0 246 398v788h164v-796q0 -84 -13 -158t-43.5 -142.5t-76.5 -117.5t-117 -78t-160 -29t-159.5 29.5t-116.5 79t-76.5 119t-43.5 145t-13 160.5zM358 1507q92 67 171 141.5t112 115.5l33 42l127 -129q-16 -15 -45.5 -41.5 t-127.5 -95.5t-204 -125z" />
<glyph unicode="&#xdb;" horiz-adv-x="1142" d="M162 502v788h164v-790q0 -396 245 -396q246 0 246 398v788h164v-796q0 -84 -13 -158t-43.5 -142.5t-76.5 -117.5t-117 -78t-160 -29t-159.5 29.5t-116.5 79t-76.5 119t-43.5 145t-13 160.5zM254 1505q164 113 313 301q126 -163 314 -299l-66 -94q-115 61 -248 205 q-135 -146 -248 -205z" />
<glyph unicode="&#xdc;" horiz-adv-x="1126" d="M162 502v788h164v-790q0 -396 245 -396q246 0 246 398v788h164v-796q0 -84 -13 -158t-43.5 -142.5t-76.5 -117.5t-117 -78t-160 -29t-159.5 29.5t-116.5 79t-76.5 119t-43.5 145t-13 160.5zM311 1542q0 45 36 83t81 38q34 0 59 -23.5t25 -58.5q0 -45 -39 -80t-84 -35 q-33 0 -55.5 21.5t-22.5 54.5zM627 1542q0 45 35.5 83t80.5 38q34 0 59 -23.5t25 -58.5q0 -45 -38.5 -80t-83.5 -35q-33 0 -55.5 21.5t-22.5 54.5z" />
<glyph unicode="&#xdf;" horiz-adv-x="1171" d="M47 903v101h135v155q0 90 56 158t136.5 99.5t168.5 31.5q157 0 260.5 -92t103.5 -246q0 -25 -4.5 -55.5t-8.5 -47.5t-14.5 -56.5t-13.5 -49.5q-37 19 -90 19q-79 0 -130.5 -42.5t-51.5 -119.5q0 -37 28.5 -68.5t74 -56t100.5 -49.5t110 -55t100.5 -66t74 -90t28.5 -119 q0 -73 -30 -129t-80.5 -89.5t-112.5 -50t-131 -16.5q-187 0 -357 103l58 112q148 -92 307 -92q83 0 140 44.5t57 125.5q0 39 -22.5 72.5t-59 57t-83.5 48t-95.5 45t-95.5 47.5t-83.5 56.5t-59 71.5t-22.5 92q0 137 90.5 210.5t231.5 73.5q14 54 14 94q0 93 -62 145t-157 52 q-87 0 -153 -54t-66 -140v-1133h-156v885z" />
<glyph unicode="&#xe0;" horiz-adv-x="954" d="M86 246q0 75 59 182l482 205v129q0 71 -43 108t-115 37q-70 0 -147 -44t-129 -103l-58 96q62 77 158 127.5t190 50.5q137 0 218 -68.5t81 -203.5v-625q0 -29 18 -45t48 -16q26 0 41 12l39 -78q-61 -37 -119 -37q-82 0 -131 49.5t-49 131.5q-25 -87 -105.5 -136 t-175.5 -49q-123 0 -192.5 76.5t-69.5 200.5zM240 252q0 -67 37 -113.5t102 -46.5q73 0 132 56.5t87.5 132t28.5 145.5v84l-361 -152q-26 -58 -26 -106zM244 1411l127 129q108 -149 315 -299l-65 -92q-241 129 -377 262z" />
<glyph unicode="&#xe1;" horiz-adv-x="954" d="M86 246q0 75 59 182l482 205v129q0 71 -43 108t-115 37q-70 0 -147 -44t-129 -103l-58 96q62 77 158 127.5t190 50.5q137 0 218 -68.5t81 -203.5v-625q0 -29 18 -45t48 -16q26 0 41 12l39 -78q-61 -37 -119 -37q-82 0 -131 49.5t-49 131.5q-25 -87 -105.5 -136 t-175.5 -49q-123 0 -192.5 76.5t-69.5 200.5zM240 252q0 -67 37 -113.5t102 -46.5q73 0 132 56.5t87.5 132t28.5 145.5v84l-361 -152q-26 -58 -26 -106zM258 1241q58 42 111.5 88t89 82.5t62.5 66.5t39 46l13 16l127 -129q-16 -15 -45 -41.5t-127 -95.5t-204 -125z" />
<glyph unicode="&#xe2;" horiz-adv-x="954" d="M86 246q0 75 59 182l482 205v129q0 71 -43 108t-115 37q-70 0 -147 -44t-129 -103l-58 96q62 77 158 127.5t190 50.5q137 0 218 -68.5t81 -203.5v-625q0 -29 18 -45t48 -16q26 0 41 12l39 -78q-61 -37 -119 -37q-82 0 -131 49.5t-49 131.5q-25 -87 -105.5 -136 t-175.5 -49q-123 0 -192.5 76.5t-69.5 200.5zM147 1239q166 114 314 301q127 -164 313 -299l-65 -94q-115 61 -248 205q-135 -146 -248 -205zM240 252q0 -67 37 -113.5t102 -46.5q73 0 132 56.5t87.5 132t28.5 145.5v84l-361 -152q-26 -58 -26 -106z" />
<glyph unicode="&#xe3;" horiz-adv-x="954" d="M86 246q0 75 59 182l482 205v129q0 71 -43 108t-115 37q-70 0 -147 -44t-129 -103l-58 96q62 77 158 127.5t190 50.5q137 0 218 -68.5t81 -203.5v-625q0 -29 18 -45t48 -16q26 0 41 12l39 -78q-61 -37 -119 -37q-82 0 -131 49.5t-49 131.5q-25 -87 -105.5 -136 t-175.5 -49q-123 0 -192.5 76.5t-69.5 200.5zM86 1315q76 60 134 89.5t112 29.5q39 0 78.5 -14t68 -31.5t65 -31.5t68.5 -14q54 0 84 13t88 53l64 -78q-72 -68 -123.5 -91t-126.5 -23q-35 0 -80.5 22.5t-95.5 45t-96 22.5q-15 0 -31.5 -4t-29 -8.5t-32.5 -15t-28.5 -15.5 t-31.5 -19.5t-28 -17.5zM240 252q0 -67 37 -113.5t102 -46.5q73 0 132 56.5t87.5 132t28.5 145.5v84l-361 -152q-26 -58 -26 -106z" />
<glyph unicode="&#xe4;" horiz-adv-x="954" d="M86 246q0 75 59 182l482 205v129q0 71 -43 108t-115 37q-70 0 -147 -44t-129 -103l-58 96q62 77 158 127.5t190 50.5q137 0 218 -68.5t81 -203.5v-625q0 -29 18 -45t48 -16q26 0 41 12l39 -78q-61 -37 -119 -37q-82 0 -131 49.5t-49 131.5q-25 -87 -105.5 -136 t-175.5 -49q-123 0 -192.5 76.5t-69.5 200.5zM203 1276q0 45 35.5 83t80.5 38q34 0 59 -23.5t25 -58.5q0 -45 -38.5 -80t-83.5 -35q-33 0 -55.5 21.5t-22.5 54.5zM240 252q0 -67 37 -113.5t102 -46.5q73 0 132 56.5t87.5 132t28.5 145.5v84l-361 -152q-26 -58 -26 -106z M518 1276q0 45 36 83t81 38q34 0 59 -23.5t25 -58.5q0 -45 -39 -80t-84 -35q-33 0 -55.5 21.5t-22.5 54.5z" />
<glyph unicode="&#xe5;" horiz-adv-x="954" d="M86 246q0 75 59 182l482 205v129q0 71 -43 108t-115 37q-70 0 -147 -44t-129 -103l-58 96q62 77 158 127.5t190 50.5q137 0 218 -68.5t81 -203.5v-625q0 -29 18 -45t48 -16q26 0 41 12l39 -78q-61 -37 -119 -37q-82 0 -131 49.5t-49 131.5q-25 -87 -105.5 -136 t-175.5 -49q-123 0 -192.5 76.5t-69.5 200.5zM240 252q0 -67 37 -113.5t102 -46.5q73 0 132 56.5t87.5 132t28.5 145.5v84l-361 -152q-26 -58 -26 -106zM244 1350q0 88 64.5 152.5t152.5 64.5q89 0 151 -64.5t62 -152.5q0 -89 -64 -153t-153 -64t-151 64.5t-62 152.5z M336 1350q0 -48 36 -85.5t85 -37.5t86 36.5t37 86.5q0 48 -34.5 85.5t-82.5 37.5q-51 0 -89 -36t-38 -87z" />
<glyph unicode="&#xe6;" horiz-adv-x="1484" d="M86 252q0 47 15.5 97.5t43.5 82.5q16 19 190.5 88.5t291.5 112.5v129q0 71 -43 108t-115 37q-70 0 -146 -43t-130 -104l-58 96q62 77 158 127.5t190 50.5q198 0 269 -137q121 137 295 137q97 0 176.5 -56t123.5 -142t48 -181l4 -104h-619v-39q0 -49 7 -102t26 -111 t46.5 -103t73 -74.5t101.5 -29.5q154 0 254 60l47 -101q-65 -40 -154 -61t-173 -21q-102 0 -190.5 61t-133.5 156l-170 -145q-43 -36 -83 -54t-91 -18q-126 0 -190 77t-64 206zM240 248q0 -60 33.5 -105t91.5 -45q35 0 75 18t70 44l141 119q-26 85 -30 229q-50 -18 -112 -41 t-142 -58t-91 -51q-36 -52 -36 -110zM799 668h436q0 94 -56 170.5t-147 76.5q-89 0 -150 -74.5t-83 -172.5z" />
<glyph unicode="&#xe7;" horiz-adv-x="843" d="M100 492q0 237 101 372q56 75 136 122.5t165 47.5q67 0 140 -28t122 -74l-70 -92q-37 31 -90 50t-100 19q-83 0 -141.5 -68t-83.5 -159q-23 -79 -23 -170q0 -61 13.5 -128.5t40.5 -135.5t78.5 -112t117.5 -44q97 0 235 90l52 -96q-71 -65 -179 -98q64 -60 64 -117 q0 -67 -68 -131t-143 -96l-78 63q106 58 140 98q26 29 26 56t-18.5 43t-47.5 16q-26 0 -100 -18v84q-76 27 -133.5 81t-90.5 124t-49 145.5t-16 155.5z" />
<glyph unicode="&#xe8;" horiz-adv-x="964" d="M100 528q0 93 29.5 183t82.5 162t135 116.5t179 44.5t176.5 -56t122.5 -141.5t49 -181.5q1 -17 2.5 -52t2.5 -52h-619v-39q0 -60 12.5 -127t39 -135.5t76.5 -113t116 -44.5q52 0 134.5 41t149.5 86l50 -98q-72 -62 -170 -107t-181 -45q-84 0 -152 35.5t-111 92t-72 131.5 t-40.5 149.5t-11.5 150.5zM279 668h436q0 93 -56 168t-147 75q-89 0 -150.5 -73t-82.5 -170zM293 1411l127 129q108 -149 315 -299l-65 -92q-241 129 -377 262z" />
<glyph unicode="&#xe9;" horiz-adv-x="964" d="M100 528q0 93 29.5 183t82.5 162t135 116.5t179 44.5t176.5 -56t122.5 -141.5t49 -181.5q1 -17 2.5 -52t2.5 -52h-619v-39q0 -60 12.5 -127t39 -135.5t76.5 -113t116 -44.5q52 0 134.5 41t149.5 86l50 -98q-72 -62 -170 -107t-181 -45q-84 0 -152 35.5t-111 92t-72 131.5 t-40.5 149.5t-11.5 150.5zM279 668h436q0 93 -56 168t-147 75q-89 0 -150.5 -73t-82.5 -170zM313 1241q92 67 171 141.5t112 115.5l33 42l127 -129q-16 -15 -45.5 -41.5t-127.5 -95.5t-204 -125z" />
<glyph unicode="&#xea;" horiz-adv-x="964" d="M100 528q0 93 29.5 183t82.5 162t135 116.5t179 44.5t176.5 -56t122.5 -141.5t49 -181.5q1 -17 2.5 -52t2.5 -52h-619v-39q0 -60 12.5 -127t39 -135.5t76.5 -113t116 -44.5q52 0 134.5 41t149.5 86l50 -98q-72 -62 -170 -107t-181 -45q-84 0 -152 35.5t-111 92t-72 131.5 t-40.5 149.5t-11.5 150.5zM199 1239q164 113 313 301q127 -164 313 -299l-65 -94q-115 61 -248 205q-135 -146 -248 -205zM279 668h436q0 93 -56 168t-147 75q-89 0 -150.5 -73t-82.5 -170z" />
<glyph unicode="&#xeb;" horiz-adv-x="964" d="M100 528q0 93 29.5 183t82.5 162t135 116.5t179 44.5t176.5 -56t122.5 -141.5t49 -181.5q1 -17 2.5 -52t2.5 -52h-619v-39q0 -60 12.5 -127t39 -135.5t76.5 -113t116 -44.5q52 0 134.5 41t149.5 86l50 -98q-72 -62 -170 -107t-181 -45q-84 0 -152 35.5t-111 92t-72 131.5 t-40.5 149.5t-11.5 150.5zM270 1276q0 45 36 83t81 38q34 0 59 -23.5t25 -58.5q0 -45 -39 -80t-84 -35q-33 0 -55.5 21.5t-22.5 54.5zM279 668h436q0 93 -56 168t-147 75q-89 0 -150.5 -73t-82.5 -170zM586 1276q0 45 35.5 83t80.5 38q34 0 59 -23.5t25 -58.5 q0 -45 -38.5 -80t-83.5 -35q-33 0 -55.5 21.5t-22.5 54.5z" />
<glyph unicode="&#xec;" horiz-adv-x="487" d="M23 1411l127 129q108 -149 315 -299l-66 -92q-239 128 -376 262zM168 0v1004h151v-1004h-151z" />
<glyph unicode="&#xed;" horiz-adv-x="487" d="M41 1241q58 42 111.5 88t89 82.5t62.5 66.5t40 46l12 16l127 -129q-16 -15 -45.5 -41.5t-127.5 -95.5t-204 -125zM168 0v1004h151v-1004h-151z" />
<glyph unicode="&#xee;" horiz-adv-x="487" d="M-76 1239q166 114 314 301q127 -164 313 -299l-66 -94q-113 60 -247 205q-135 -146 -248 -205zM168 0v1004h151v-1004h-151z" />
<glyph unicode="&#xef;" horiz-adv-x="487" d="M-16 1276q0 45 35 83t81 38q33 0 58.5 -24.5t25.5 -57.5q0 -45 -39 -80t-84 -35q-33 0 -55 21.5t-22 54.5zM168 0v1004h151v-1004h-151zM299 1276q0 45 35.5 83t81.5 38q33 0 58.5 -24.5t25.5 -57.5q0 -45 -39 -80t-84 -35q-33 0 -55.5 21.5t-22.5 54.5z" />
<glyph unicode="&#xf1;" horiz-adv-x="1062" d="M166 1315q76 60 134 89.5t112 29.5q39 0 78.5 -14t68 -31.5t65 -31.5t68.5 -14q54 0 84 13t88 53l64 -78q-72 -68 -123.5 -91t-126.5 -23q-35 0 -80.5 22.5t-95.5 45t-96 22.5q-15 0 -31.5 -4t-29 -8.5t-32.5 -15t-28.5 -15.5t-31.5 -19.5t-28 -17.5zM168 0v1004h156v-74 q56 40 151.5 72t173.5 32q77 0 128.5 -20t77 -59.5t35 -84t9.5 -108.5v-762h-156v762q0 75 -24 110t-96 35q-78 0 -168.5 -34.5t-130.5 -69.5v-803h-156z" />
<glyph unicode="&#xf2;" horiz-adv-x="999" d="M100 500q0 73 14.5 146.5t47 143.5t78 124t113 87t147.5 33t147.5 -33t113 -87t77.5 -124t46.5 -143.5t14.5 -146.5t-15 -146t-47 -142.5t-77.5 -123.5t-113 -86.5t-146.5 -32.5t-146.5 32.5t-113 86.5t-78 123.5t-47.5 142.5t-15 146zM256 500q0 -61 15 -129t43 -132 t77 -105.5t109 -41.5t109 41.5t77 105.5t42.5 132t14.5 129t-14.5 129.5t-42.5 133t-77 106.5t-109 42t-109 -42t-77 -106.5t-43 -133t-15 -129.5zM281 1411l127 129q108 -149 315 -299l-66 -92q-239 128 -376 262z" />
<glyph unicode="&#xf3;" horiz-adv-x="999" d="M100 500q0 73 14.5 146.5t47 143.5t78 124t113 87t147.5 33t147.5 -33t113 -87t77.5 -124t46.5 -143.5t14.5 -146.5t-15 -146t-47 -142.5t-77.5 -123.5t-113 -86.5t-146.5 -32.5t-146.5 32.5t-113 86.5t-78 123.5t-47.5 142.5t-15 146zM256 500q0 -61 15 -129t43 -132 t77 -105.5t109 -41.5t109 41.5t77 105.5t42.5 132t14.5 129t-14.5 129.5t-42.5 133t-77 106.5t-109 42t-109 -42t-77 -106.5t-43 -133t-15 -129.5zM293 1241q58 42 111.5 88t89 82.5t62.5 66.5t40 46l12 16l127 -129q-16 -15 -45.5 -41.5t-127.5 -95.5t-204 -125z" />
<glyph unicode="&#xf4;" horiz-adv-x="999" d="M100 500q0 73 14.5 146.5t47 143.5t78 124t113 87t147.5 33t147.5 -33t113 -87t77.5 -124t46.5 -143.5t14.5 -146.5t-15 -146t-47 -142.5t-77.5 -123.5t-113 -86.5t-146.5 -32.5t-146.5 32.5t-113 86.5t-78 123.5t-47.5 142.5t-15 146zM193 1239q164 113 313 301 q127 -164 313 -299l-65 -94q-115 61 -248 205q-135 -146 -248 -205zM256 500q0 -61 15 -129t43 -132t77 -105.5t109 -41.5t109 41.5t77 105.5t42.5 132t14.5 129t-14.5 129.5t-42.5 133t-77 106.5t-109 42t-109 -42t-77 -106.5t-43 -133t-15 -129.5z" />
<glyph unicode="&#xf5;" horiz-adv-x="999" d="M100 500q0 73 14.5 146.5t47 143.5t78 124t113 87t147.5 33t147.5 -33t113 -87t77.5 -124t46.5 -143.5t14.5 -146.5t-15 -146t-47 -142.5t-77.5 -123.5t-113 -86.5t-146.5 -32.5t-146.5 32.5t-113 86.5t-78 123.5t-47.5 142.5t-15 146zM117 1315q76 60 133.5 89.5 t111.5 29.5q48 0 98 -23t96.5 -45.5t86.5 -22.5q54 0 84 13t88 53l64 -78q-72 -68 -123.5 -91t-126.5 -23q-35 0 -81 22.5t-96 45t-96 22.5q-15 0 -31.5 -4t-29 -8.5t-32 -15t-28.5 -16t-31 -19t-28 -17.5zM256 500q0 -61 15 -129t43 -132t77 -105.5t109 -41.5t109 41.5 t77 105.5t42.5 132t14.5 129t-14.5 129.5t-42.5 133t-77 106.5t-109 42t-109 -42t-77 -106.5t-43 -133t-15 -129.5z" />
<glyph unicode="&#xf6;" horiz-adv-x="999" d="M100 500q0 73 14.5 146.5t47 143.5t78 124t113 87t147.5 33t147.5 -33t113 -87t77.5 -124t46.5 -143.5t14.5 -146.5t-15 -146t-47 -142.5t-77.5 -123.5t-113 -86.5t-146.5 -32.5t-146.5 32.5t-113 86.5t-78 123.5t-47.5 142.5t-15 146zM250 1276q0 45 36 83t81 38 q34 0 59 -23.5t25 -58.5q0 -45 -39 -80t-84 -35q-33 0 -55.5 21.5t-22.5 54.5zM256 500q0 -61 15 -129t43 -132t77 -105.5t109 -41.5t109 41.5t77 105.5t42.5 132t14.5 129t-14.5 129.5t-42.5 133t-77 106.5t-109 42t-109 -42t-77 -106.5t-43 -133t-15 -129.5zM565 1276 q0 45 36 83t81 38q34 0 59 -23.5t25 -58.5q0 -45 -39 -80t-84 -35q-33 0 -55.5 21.5t-22.5 54.5z" />
<glyph unicode="&#xf7;" horiz-adv-x="1001" d="M111 451v122h778v-122h-778zM381 209q0 52 39.5 88.5t91.5 36.5q48 0 83.5 -33t35.5 -82q0 -50 -39.5 -87.5t-91.5 -37.5q-48 0 -83.5 33t-35.5 82zM381 817q0 52 39.5 88.5t91.5 36.5q48 0 83.5 -33t35.5 -82q0 -50 -39.5 -87.5t-91.5 -37.5q-48 0 -83.5 33t-35.5 82z " />
<glyph unicode="&#xf8;" horiz-adv-x="999" d="M100 500q0 73 15 146.5t47.5 143.5t78 124t113 87t146.5 33q48 0 94 -12l49 170h102l-61 -213q107 -70 161 -203t54 -276q0 -73 -15 -146t-47 -142.5t-77.5 -123.5t-113 -86.5t-146.5 -32.5q-52 0 -101 15l-59 -211h-102l71 254q-104 71 -156.5 201.5t-52.5 271.5z M256 500q0 -231 92 -338l213 741q-27 8 -61 8q-58 0 -102.5 -28.5t-70.5 -71.5t-42.5 -100.5t-22.5 -108.5t-6 -102zM434 100q33 -10 66 -10q58 0 102.5 28t70.5 70.5t42.5 100t22 108.5t5.5 103q0 235 -96 346z" />
<glyph unicode="&#xf9;" horiz-adv-x="1058" d="M164 242v762h155v-762q0 -75 22 -110.5t93 -35.5q68 0 161 35.5t144 81.5v791h156v-850q0 -17 1 -27t4.5 -24t13 -22t24.5 -9l-51 -103q-56 0 -96.5 31.5t-47.5 85.5q-62 -53 -151 -85t-172 -32q-139 0 -197.5 67t-58.5 206zM313 1411l127 129q107 -147 316 -299l-66 -92 q-241 129 -377 262z" />
<glyph unicode="&#xfa;" horiz-adv-x="1058" d="M164 242v762h155v-762q0 -75 22 -110.5t93 -35.5q68 0 161 35.5t144 81.5v791h156v-850q0 -17 1 -27t4.5 -24t13 -22t24.5 -9l-51 -103q-56 0 -96.5 31.5t-47.5 85.5q-62 -53 -151 -85t-172 -32q-139 0 -197.5 67t-58.5 206zM313 1241q92 67 171 141.5t112 115.5l33 42 l127 -129q-16 -15 -45.5 -41.5t-127.5 -95.5t-204 -125z" />
<glyph unicode="&#xfb;" horiz-adv-x="1058" d="M164 242v762h155v-762q0 -75 22 -110.5t93 -35.5q68 0 161 35.5t144 81.5v791h156v-850q0 -17 1 -27t4.5 -24t13 -22t24.5 -9l-51 -103q-56 0 -96.5 31.5t-47.5 85.5q-62 -53 -151 -85t-172 -32q-139 0 -197.5 67t-58.5 206zM207 1239q164 113 313 301q126 -163 314 -299 l-66 -94q-115 61 -248 205q-135 -146 -248 -205z" />
<glyph unicode="&#xfc;" horiz-adv-x="1058" d="M164 242v762h155v-762q0 -75 22 -110.5t93 -35.5q68 0 161 35.5t144 81.5v791h156v-850q0 -17 1 -27t4.5 -24t13 -22t24.5 -9l-51 -103q-56 0 -96.5 31.5t-47.5 85.5q-62 -53 -151 -85t-172 -32q-139 0 -197.5 67t-58.5 206zM270 1276q0 45 36 83t81 38q34 0 59 -23.5 t25 -58.5q0 -45 -39 -80t-84 -35q-33 0 -55.5 21.5t-22.5 54.5zM586 1276q0 45 35.5 83t80.5 38q34 0 59 -23.5t25 -58.5q0 -45 -38.5 -80t-83.5 -35q-33 0 -55.5 21.5t-22.5 54.5z" />
<glyph unicode="&#xff;" horiz-adv-x="929" d="M23 1004h163l234 -658q39 -112 55 -205q153 381 275 863h155q-40 -155 -85 -308t-111 -345.5t-143.5 -353.5t-153.5 -249q-75 -88 -240 -129l-33 119q70 15 152 86q7 6 14 13t14 16.5t12 16.5t13 20t11.5 18t12 20.5t10 18.5t10.5 20l9 17zM217 1276q0 45 36 83t81 38 q34 0 59 -23.5t25 -58.5q0 -45 -39 -80t-84 -35q-33 0 -55.5 21.5t-22.5 54.5zM532 1276q0 45 36 83t81 38q34 0 59 -23.5t25 -58.5q0 -45 -39 -80t-84 -35q-33 0 -55.5 21.5t-22.5 54.5z" />
<glyph unicode="&#x152;" horiz-adv-x="1306" d="M113 653q0 81 13.5 165t46 169.5t80 152t122 108.5t164.5 42h665v-137h-499v-410h382v-141h-382v-461h520v-141h-686q-93 0 -168.5 43.5t-122 111.5t-78.5 156.5t-44.5 173.5t-12.5 168zM270 633q0 -61 5 -120t22.5 -131.5t45.5 -126t79.5 -90t118.5 -36.5v1030 q-50 0 -90.5 -20.5t-68 -53t-48.5 -79t-33 -93t-19 -100.5t-9.5 -95.5t-2.5 -84.5z" />
<glyph unicode="&#x153;" horiz-adv-x="1558" d="M100 500q0 73 15 146.5t47.5 143.5t78 124t113 87t146.5 33q195 0 297 -172q58 81 141.5 126.5t181.5 45.5q74 0 138.5 -32.5t108.5 -86.5t70.5 -121.5t30.5 -138.5q1 -18 2.5 -52.5t2.5 -51.5h-619v-39q0 -49 7 -102t26 -111t46.5 -103t73 -74.5t101.5 -29.5 q64 0 134 15.5t120 44.5l47 -101q-64 -39 -154.5 -60.5t-173.5 -21.5q-85 0 -161 43.5t-127 116.5q-114 -160 -293 -160q-79 0 -146.5 32.5t-113 86.5t-78 123.5t-47.5 142.5t-15 146zM256 500q0 -52 6 -103t22.5 -108t42.5 -100t70.5 -71t102.5 -28q160 0 219 209 q-25 106 -25 229q0 75 27 168q-61 215 -221 215q-58 0 -102.5 -28.5t-70.5 -71.5t-42.5 -100.5t-22.5 -108.5t-6 -102zM872 668h437q0 95 -56 171t-147 76q-89 0 -150.5 -75.5t-83.5 -171.5z" />
<glyph unicode="&#x178;" horiz-adv-x="964" d="M27 1290h174l286 -643l289 643h164l-377 -817v-473h-162v473zM244 1542q0 45 35.5 83t80.5 38q34 0 59 -23.5t25 -58.5q0 -45 -38.5 -80t-83.5 -35q-33 0 -55.5 21.5t-22.5 54.5zM559 1542q0 45 36 83t81 38q34 0 59 -23.5t25 -58.5q0 -45 -39 -80t-84 -35 q-33 0 -55.5 21.5t-22.5 54.5z" />
<glyph unicode="&#x2c6;" horiz-adv-x="823" d="M123 1239q164 113 313 301q126 -163 314 -299l-66 -94q-115 61 -248 205q-135 -146 -248 -205z" />
<glyph unicode="&#x2dc;" horiz-adv-x="778" d="M2 1315q76 60 134 89.5t112 29.5q39 0 78.5 -14t68 -31.5t65 -31.5t68.5 -14q54 0 84 13t88 53l64 -78q-72 -68 -123.5 -91t-126.5 -23q-35 0 -80.5 22.5t-95.5 45t-96 22.5q-15 0 -31.5 -4t-29 -8.5t-32.5 -15t-28.5 -15.5t-31.5 -19.5t-28 -17.5z" />
<glyph unicode="&#x2000;" horiz-adv-x="911" />
<glyph unicode="&#x2001;" horiz-adv-x="1823" />
<glyph unicode="&#x2002;" horiz-adv-x="911" />
<glyph unicode="&#x2003;" horiz-adv-x="1823" />
<glyph unicode="&#x2004;" horiz-adv-x="607" />
<glyph unicode="&#x2005;" horiz-adv-x="455" />
<glyph unicode="&#x2006;" horiz-adv-x="303" />
<glyph unicode="&#x2007;" horiz-adv-x="303" />
<glyph unicode="&#x2008;" horiz-adv-x="227" />
<glyph unicode="&#x2009;" horiz-adv-x="364" />
<glyph unicode="&#x200a;" horiz-adv-x="101" />
<glyph unicode="&#x2010;" horiz-adv-x="618" d="M111 461v123h391v-123h-391z" />
<glyph unicode="&#x2011;" horiz-adv-x="618" d="M111 461v123h391v-123h-391z" />
<glyph unicode="&#x2012;" horiz-adv-x="618" d="M111 461v123h391v-123h-391z" />
<glyph unicode="&#x2013;" horiz-adv-x="733" d="M0 461v123h733v-123h-733z" />
<glyph unicode="&#x2014;" horiz-adv-x="1245" d="M0 463v123h1245v-123h-1245z" />
<glyph unicode="&#x2018;" horiz-adv-x="546" d="M94 977q9 20 28 55t87.5 134.5t148.5 187.5l93 -64q-99 -142 -123 -239q-11 -45 -11 -84l5 -49q-58 -35 -97 -35q-27 0 -60 23.5t-52 47.5z" />
<glyph unicode="&#x2019;" horiz-adv-x="552" d="M98 915q99 141 123 240q10 41 10 84l-4 49q58 35 97 35q27 0 60 -23.5t52 -47.5l19 -23q-10 -20 -29 -55t-87.5 -134.5t-148.5 -187.5z" />
<glyph unicode="&#x201a;" horiz-adv-x="528" d="M59 -223q99 142 123 239q11 45 11 84l-5 50q58 34 97 34q27 0 60 -23.5t52 -46.5l19 -24q-9 -20 -28 -55t-87.5 -134.5t-148.5 -187.5z" />
<glyph unicode="&#x201c;" horiz-adv-x="913" d="M96 977q9 20 28 55t87.5 134.5t148.5 187.5l93 -64q-99 -142 -123 -239q-11 -45 -11 -84l5 -49q-58 -35 -97 -35q-27 0 -60 23.5t-52 47.5zM459 977q9 20 28 55t87.5 134.5t148.5 187.5l92 -64q-99 -142 -123 -239q-10 -41 -10 -84l4 -49q-57 -35 -96 -35q-27 0 -60 23.5 t-52 47.5z" />
<glyph unicode="&#x201d;" horiz-adv-x="913" d="M96 915q99 141 123 240q10 41 10 84l-4 49q58 35 97 35q27 0 60 -23.5t52 -47.5l19 -23q-10 -20 -29 -55t-87.5 -134.5t-148.5 -187.5zM459 915q99 141 123 240q10 41 10 84l-4 49q57 35 96 35q27 0 60 -23.5t52 -47.5l19 -23q-9 -20 -28 -55t-87.5 -134.5t-148.5 -187.5 z" />
<glyph unicode="&#x201e;" horiz-adv-x="888" d="M59 -223q99 142 123 239q11 45 11 84l-5 50q58 34 97 34q27 0 60 -23.5t52 -46.5l19 -24q-9 -20 -28 -55t-87.5 -134.5t-148.5 -187.5zM422 -223q99 142 123 239q10 41 10 84l-4 50q57 34 96 34q27 0 60 -23.5t52 -46.5l19 -24q-9 -20 -28 -55t-87.5 -134.5 t-148.5 -187.5z" />
<glyph unicode="&#x2022;" horiz-adv-x="868" d="M80 645q0 146 103 249t249 103t250 -103t104 -249t-104 -249t-250 -103t-249 103t-103 249z" />
<glyph unicode="&#x2026;" horiz-adv-x="1236" d="M143 84q0 52 39.5 88.5t91.5 36.5q48 0 83.5 -33t35.5 -82q0 -50 -39.5 -87.5t-91.5 -37.5q-48 0 -83.5 33t-35.5 82zM496 84q0 52 39.5 88.5t91.5 36.5q48 0 83 -33t35 -82q0 -50 -39.5 -87.5t-91.5 -37.5q-48 0 -83 33t-35 82zM844 84q0 52 39.5 88.5t91.5 36.5 q48 0 83.5 -33t35.5 -82q0 -50 -39.5 -87.5t-91.5 -37.5q-48 0 -83.5 33t-35.5 82z" />
<glyph unicode="&#x202f;" horiz-adv-x="364" />
<glyph unicode="&#x2039;" horiz-adv-x="614" d="M68 512l378 385l97 -78l-305 -307l309 -307l-96 -78z" />
<glyph unicode="&#x203a;" horiz-adv-x="614" d="M68 205l96 -78l383 385l-379 385l-96 -78l305 -307z" />
<glyph unicode="&#x205f;" horiz-adv-x="455" />
<glyph unicode="&#x2122;" horiz-adv-x="1642" d="M137 1331v90h498v-90h-199v-723h-100v723h-199zM731 608v813h137l240 -686l238 686h137v-813h-103v553l6 111l-233 -664h-90l-234 666q7 -68 7 -111v-555h-105z" />
<glyph unicode="&#xe000;" horiz-adv-x="1003" d="M0 0v1004h1004v-1004h-1004z" />
<glyph unicode="&#xfb01;" horiz-adv-x="1069" d="M47 903v101h135v112q0 87 33 152.5t90.5 103t128.5 56t154 18.5q43 0 96 -6.5t116 -21.5t104.5 -48t41.5 -78q0 -50 -36 -81t-87 -31q-37 0 -58 13t-27 32t-16 42t-23.5 42t-51.5 32t-98 13q-107 0 -159 -78.5t-52 -190.5v-81h199v-119h-199v-885h-156v885zM760 0v1004 h151v-1004h-151z" />
<glyph unicode="&#xfb02;" horiz-adv-x="1069" d="M47 903v101h135v112q0 152 100.5 238t254.5 86q152 0 225 -78v57h151v-1016q0 -195 62 -403h-162q-51 136 -51 403v828q-72 110 -201 110q-41 0 -73 -6.5t-55 -22t-39.5 -31.5t-27 -44t-16.5 -49t-8.5 -58.5t-3 -60.5t-0.5 -65h199v-119h-199v-885h-156v885z" />
</font>
</defs>
</svg>
